# xmcd CD database file
#
# Track frame offsets:
#	182
#	21255
#	40192
#	61720
#	82842
#	106375
#	126500
#	145550
#
# Disc length: 2220 seconds
#
# Revision: 0
# Processed by: cddbd v1.5.2PL0 Copyright (c) Steve Scherf et al.
# Submitted via: CDex 1.50
#
DISCID=5f08aa08
DTITLE=Elemento 10 - Solo Para Ti
DYEAR=1994
DGENRE=Salsa
TTITLE0=Solo Para Ti
TTITLE1=La Negrita
TTITLE2=Laberinto De Amor
TTITLE3=Si Te Da Por Volver
TTITLE4=Caliente
TTITLE5=One Saturday Night
TTITLE6=Asando Maiz
TTITLE7=Damelo Todo
EXTD=YEAR: 1994
EXTT0=
EXTT1=
EXTT2=
EXTT3=
EXTT4=
EXTT5=
EXTT6=
EXTT7=
PLAYORDER=
